<?xml version="1.0" standalone="no"?>
<!DOCTYPE svg PUBLIC "-//W3C//DTD SVG 20010904//EN"
 "http://www.w3.org/TR/2001/REC-SVG-20010904/DTD/svg10.dtd">
<svg version="1.0" xmlns="http://www.w3.org/2000/svg"
 width="512.000000pt" height="512.000000pt" viewBox="0 0 512.000000 512.000000"
 preserveAspectRatio="xMidYMid meet">
<metadata>
Created by potrace 1.14, written by Peter Selinger 2001-2017
</metadata>
<g transform="translate(0.000000,512.000000) scale(0.100000,-0.100000)"
fill="#000000" stroke="none">
<path d="M2445 5105 c-63 -17 -100 -34 -147 -65 -21 -14 -528 -515 -1126
-1115 -773 -774 -1096 -1103 -1112 -1135 -43 -85 -59 -154 -55 -248 6 -162 75
-287 208 -373 89 -57 156 -77 270 -78 l67 -1 0 -804 c0 -704 2 -812 16 -868
44 -175 174 -318 352 -387 l67 -26 478 -3 c465 -3 479 -3 520 17 23 11 51 35
62 53 19 32 20 53 21 673 1 431 6 654 13 681 20 75 93 148 172 171 23 6 143
10 320 8 261 -1 288 -3 329 -22 53 -24 94 -63 124 -118 21 -39 21 -48 26 -705
l5 -665 24 -31 c49 -66 44 -65 576 -62 535 4 523 3 642 75 35 21 80 54 102 74
84 78 152 209 167 322 3 23 6 395 7 827 l2 785 79 3 c227 8 411 161 456 377
24 116 -2 256 -67 355 -37 57 -2173 2189 -2228 2225 -27 17 -70 40 -95 49 -59
24 -208 30 -275 11z"/>
</g>
</svg>
